<?xml version="1.0" encoding="UTF-8" standalone="no"?>
<svg
   width="2176"
   height="2176"
   viewBox="0 0 167.77482 167.77482"
   version="1.1"
   id="svg15"
   sodipodi:docname="stoneridge.svg"
   inkscape:version="1.3.2 (091e20e, 2023-11-25, custom)"
   xmlns:inkscape="http://www.inkscape.org/namespaces/inkscape"
   xmlns:sodipodi="http://sodipodi.sourceforge.net/DTD/sodipodi-0.dtd"
   xmlns="http://www.w3.org/2000/svg"
   xmlns:svg="http://www.w3.org/2000/svg">
  <defs
     id="defs15" />
  <sodipodi:namedview
     id="namedview15"
     pagecolor="#ffffff"
     bordercolor="#000000"
     borderopacity="0.25"
     inkscape:showpageshadow="2"
     inkscape:pageopacity="0.0"
     inkscape:pagecheckerboard="0"
     inkscape:deskcolor="#d1d1d1"
     inkscape:zoom="0.18130218"
     inkscape:cx="719.79278"
     inkscape:cy="1315.4834"
     inkscape:window-width="1600"
     inkscape:window-height="837"
     inkscape:window-x="-8"
     inkscape:window-y="-8"
     inkscape:window-maximized="1"
     inkscape:current-layer="svg15" />
  <path
     fill-rule="evenodd"
     clip-rule="evenodd"
     fill="#ffffff"
     d="M 0,0 H 167.77521 V 167.77523 H 0 Z"
     id="path1"
     style="stroke-width:0.8704" />
  <path
     d="m 63.854113,64.568997 c 5.494,-1.832 14.04,-9.768 14.04,-9.768 4.883,-3.052 14.04014,1.221 9.157,9.157 -4.884,7.326 -14.65,11.599 -15.261,12.209 -0.61,-0.609 -0.61,-7.325 -7.936,-11.598 z"
     fill-rule="evenodd"
     clip-rule="evenodd"
     fill="#ada9a0"
     stroke="#ada9a0"
     stroke-width="0.38"
     stroke-miterlimit="2.613"
     id="path2" />
  <path
     d="m 57.139113,91.430127 c 1.221,-5.49413 -1.221,-17.09413 -1.221,-17.09413 -0.61,-5.494 7.936,-11.599 12.209,-3.052 4.273,7.937 3.052,18.31407 3.052,18.92509 -0.61,0.61002 -6.104,-3.05209 -14.04,1.22104 z"
     fill-rule="evenodd"
     clip-rule="evenodd"
     fill="#ada9a0"
     stroke="#ada9a0"
     stroke-width="0.38"
     stroke-miterlimit="2.613"
     id="path3" />
  <path
     d="m 77.284113,110.96541 c -3.663,-4.273 -15.261,-7.936 -15.261,-7.936 -4.884,-2.443 -6.104,-12.211303 3.052,-11.600283 9.157,0 17.703,6.1052 18.313,6.71522 0,0.61202 -6.104,3.663063 -6.104,12.821063 z"
     fill-rule="evenodd"
     clip-rule="evenodd"
     fill="#ada9a0"
     stroke="#ada9a0"
     stroke-width="0.38"
     stroke-miterlimit="2.613"
     id="path4" />
  <path
     d="m 104.14351,102.41941 c -5.494042,1.832 -14.039317,10.379 -14.039317,10.379 -4.88508,3.051 -14.04108,-1.221 -9.15708,-9.158 4.884,-7.326123 14.04024,-12.209283 14.64926,-12.209283 1.22104,0.61102 1.22104,6.71422 8.547137,10.988283 z"
     fill-rule="evenodd"
     clip-rule="evenodd"
     fill="#ada9a0"
     stroke="#ada9a0"
     stroke-width="0.38"
     stroke-miterlimit="2.613"
     id="path5" />
  <path
     d="m 110.24651,75.557997 c -1.221,5.494 1.832,17.70519 1.832,17.70519 0,5.49418 -7.936,11.598223 -12.209002,3.0511 -4.273135,-7.93626 -3.662115,-18.31329 -3.053095,-18.92429 0.61202,-0.612 6.106097,2.441 13.430097,-1.832 z"
     fill-rule="evenodd"
     clip-rule="evenodd"
     fill="#ada9a0"
     stroke="#ada9a0"
     stroke-width="0.38"
     stroke-miterlimit="2.613"
     id="path6" />
  <path
     d="m 90.104193,56.632997 c 4.27114,3.663 15.871317,7.326 15.871317,7.326 4.883,2.442 6.104,12.82 -3.053,12.209 -9.157197,-0.611 -17.703397,-6.104 -18.312397,-6.715 0,-0.611 5.49408,-4.274 5.49408,-12.82 z m -62.26408,-6.105 c -14.04,-5.494 -3.663,-23.198 12.208,-34.187 11.598,-7.3259986 35.405,-15.2619884 40.289,-3.052 -1.222,1.221 -3.053,5.494 -3.053,5.494 -4.883,-1.221 -37.236,4.885 -49.444,31.745 z"
     fill-rule="evenodd"
     clip-rule="evenodd"
     fill="#ada9a0"
     stroke="#ada9a0"
     stroke-width="0.38"
     stroke-miterlimit="2.613"
     id="path7" />
  <path
     d="m 22.346113,49.917997 c 9.767,8.546 30.521,0 36.015,-3.663 6.104,-4.273 15.871,-7.936 21.365,-3.663 1.221,1.221 6.714,10.988 6.714,10.988 -7.325,-4.273 -21.365,4.884 -26.858,7.326 -4.273,2.442 -21.975,8.546 -29.911,1.221 -1.221,-1.221 -5.494,-9.768 -7.325,-12.209 z m 4.883,65.321413 c -12.209,9.768 -22.585993,-7.936 -23.1959924,-27.473403 -1.2209984,-14.04001 3.6629954,-38.45901 17.0919924,-36.01701 0.61,1.221 3.052,4.884 3.052,4.884 -3.663,3.663 -14.6499994,34.79713 3.052,58.606413 z"
     fill-rule="evenodd"
     clip-rule="evenodd"
     fill="#ada9a0"
     stroke="#ada9a0"
     stroke-width="0.38"
     stroke-miterlimit="2.613"
     id="path8" />
  <path
     d="m 24.177113,120.12241 c 12.208,-4.273 14.65,-26.250203 14.65,-33.576413 -0.61,-7.325 1.221,-17.703 7.325,-20.145 1.831,0 12.819,-0.61 12.819,-0.61 -7.325,4.273 -6.714,21.367 -6.714,27.47219 -0.611,4.88316 -3.663,23.197223 -14.04,26.250223 -1.831,0.609 -10.988,-10e-4 -14.04,0.609 z m 59.211,28.082 c 1.831,15.262 -18.924,15.262 -36.016,6.717 -12.208,-6.105 -31.131,-22.588 -22.585,-32.967 1.832,0 6.104,-0.609 6.104,-0.609 1.222,5.493 22.586,30.523 52.497,26.859 z"
     fill-rule="evenodd"
     clip-rule="evenodd"
     fill="#ada9a0"
     stroke="#ada9a0"
     stroke-width="0.38"
     stroke-miterlimit="2.613"
     id="path9" />
  <path
     d="m 85.219113,153.08841 c 2.441,-12.209 -15.26,-25.641 -21.365,-28.693 -6.104,-3.051 -14.65,-10.377 -14.04,-17.092 1.221,-1.223 6.714,-11.600143 6.714,-11.600143 -0.61,9.156143 14.65,16.482143 20.145,20.145143 3.663,2.443 17.70222,14.652 15.87216,25.031 -0.61102,1.831 -6.10516,9.768 -7.32616,12.209 z"
     fill-rule="evenodd"
     clip-rule="evenodd"
     fill="#ada9a0"
     id="path10" />
  <path
     d="m 85.219113,153.08841 c 2.441,-12.209 -15.26,-25.641 -21.365,-28.693 -6.104,-3.051 -14.65,-10.377 -14.04,-17.092 1.221,-1.223 6.714,-11.600143 6.714,-11.600143 0,9.156143 14.65,16.482143 20.145,20.145143 3.663,2.443 17.70222,14.652 15.87216,25.031 -0.61102,1.831 -6.10516,9.768 -7.32616,12.209 z"
     fill="none"
     stroke="#ada9a0"
     stroke-width="0.38"
     stroke-miterlimit="2.613"
     id="path11" />
  <path
     d="m 139.54751,117.07141 c 14.65,6.104 4.273,23.809 -12.207,34.186 -11.6,7.938 -34.795237,15.873 -39.680397,3.053 0.61102,-1.221 3.0531,-5.494 3.0531,-5.494 4.88316,1.831 37.237297,-4.274 48.834297,-31.745 z"
     fill-rule="evenodd"
     clip-rule="evenodd"
     fill="#ada9a0"
     stroke="#ada9a0"
     stroke-width="0.38"
     stroke-miterlimit="2.613"
     id="path12" />
  <path
     d="m 145.04151,117.68041 c -9.766,-8.547 -29.91,0 -36.016,4.273 -5.494,3.662 -15.871217,7.326 -21.365397,3.662 -0.609,-1.83 -6.714,-11.598 -6.714,-11.598 7.32502,4.883 21.976397,-4.273 27.470397,-7.326 4.273,-2.441 21.365,-8.547063 29.301,-1.221 1.221,1.222 5.492,9.769 7.324,12.21 z m -4.882,-65.321413 c 12.207,-9.768 22.586,8.547 23.807,27.472 0.609,14.04121 -4.273,38.460413 -17.703,36.017413 -0.609,-1.221 -3.053,-4.883 -3.053,-4.883 3.663,-3.662 14.65,-34.797413 -3.051,-58.606413 z"
     fill-rule="evenodd"
     clip-rule="evenodd"
     fill="#ada9a0"
     stroke="#ada9a0"
     stroke-width="0.38"
     stroke-miterlimit="2.613"
     id="path13" />
  <path
     d="m 143.20951,47.475997 c -11.598,4.273 -14.648,26.861 -14.039,33.576 0,7.32603 -1.83,17.70537 -7.936,20.146413 -1.221,0 -12.818,0.609 -12.818,0.609 7.324,-4.271083 6.715,-21.366413 6.715,-27.471413 0.609,-4.884 3.662,-23.198 14.039,-26.25 1.832,-0.61 10.989,0 14.039,-0.61 z m -58.599397,-28.693 c -1.832,-15.2619916 18.312397,-15.2619916 36.016397,-6.715 12.207,6.104 31.131,22.587 22.584,32.965 -1.83,0 -6.104,0.61 -6.104,0.61 -1.221,-4.883 -22.586,-30.523 -52.496397,-26.86 z"
     fill-rule="evenodd"
     clip-rule="evenodd"
     fill="#ada9a0"
     stroke="#ada9a0"
     stroke-width="0.38"
     stroke-miterlimit="2.613"
     id="path14" />
  <path
     d="m 82.167113,13.899997 c -1.83,12.209 15.26132,25.64 21.976397,28.692 6.104,3.663 14.041,10.378 13.43,17.094 -0.611,1.221 -6.105,11.599 -6.105,11.599 0,-8.547 -14.650097,-16.483 -20.143277,-20.146 -3.66412,-2.442 -18.31412,-14.652 -15.87212,-25.029 0.61,-1.832 5.494,-9.769 6.714,-12.21 z"
     fill-rule="evenodd"
     clip-rule="evenodd"
     fill="#ada9a0"
     stroke="#ada9a0"
     stroke-width="0.38"
     stroke-miterlimit="2.613"
     id="path15" />
</svg>
